<svg width="81" height="64" viewBox="0 0 81 64" fill="none" xmlns="http://www.w3.org/2000/svg">
<path d="M15.3474 55.288C12.8034 55.288 10.5114 54.736 8.47141 53.632C6.43141 52.504 4.82341 50.956 3.64741 48.988C2.49541 47.02 1.91941 44.824 1.91941 42.4C1.91941 39.976 2.49541 37.78 3.64741 35.812C4.82341 33.844 6.43141 32.308 8.47141 31.204C10.5114 30.076 12.8034 29.512 15.3474 29.512C17.8674 29.512 20.1474 30.076 22.1874 31.204C24.2274 32.308 25.8234 33.844 26.9754 35.812C28.1274 37.756 28.7034 39.952 28.7034 42.4C28.7034 44.848 28.1274 47.056 26.9754 49.024C25.8234 50.968 24.2274 52.504 22.1874 53.632C20.1474 54.736 17.8674 55.288 15.3474 55.288ZM15.3474 52.084C17.1954 52.084 18.8514 51.664 20.3154 50.824C21.8034 49.984 22.9674 48.832 23.8074 47.368C24.6714 45.88 25.1034 44.224 25.1034 42.4C25.1034 40.576 24.6714 38.932 23.8074 37.468C22.9674 35.98 21.8034 34.816 20.3154 33.976C18.8514 33.136 17.1954 32.716 15.3474 32.716C13.4994 32.716 11.8194 33.136 10.3074 33.976C8.81941 34.816 7.64341 35.98 6.77941 37.468C5.93941 38.932 5.51941 40.576 5.51941 42.4C5.51941 44.224 5.93941 45.88 6.77941 47.368C7.64341 48.832 8.81941 49.984 10.3074 50.824C11.8194 51.664 13.4994 52.084 15.3474 52.084ZM57.5698 55L57.5338 36.64L48.4258 51.94H46.7698L37.6618 36.748V55H34.2058V29.8H37.1578L47.6698 47.512L58.0378 29.8H60.9898L61.0258 55H57.5698Z" fill="white"/>
<path d="M77.6783 19.6298L76.2649 19.1976C76.0688 19.1377 75.8618 19.1941 75.7294 19.3433C75.386 19.7309 75.0092 20.0994 74.6093 20.4387C71.6452 22.9537 67.9246 23.8125 63.85 22.9233C59.7957 22.0386 57.9322 19.692 55.353 16.4441C55.1686 16.2118 54.981 15.9756 54.7891 15.7357C54.7673 15.7083 54.7416 15.6724 54.7144 15.6344C54.6428 15.5343 54.5536 15.4098 54.4281 15.287C54.2576 15.1201 54.0719 14.9646 53.8761 14.825C53.4716 14.5364 53.2018 14.082 53.1361 13.5784L52.7024 10.2566C52.6836 10.1126 52.6098 9.97958 52.4971 9.88658C52.3846 9.79352 52.2423 9.74818 52.1017 9.76061L49.9617 9.94883C49.6692 9.97446 49.4637 10.2384 49.5027 10.5381L49.9187 13.7244C49.9642 14.0732 49.8514 14.428 49.6092 14.6977C49.2393 15.1095 49.0509 15.6178 49.0642 16.1673C49.2326 23.1161 53.8916 28.2594 61.5271 29.9255C64.8224 30.6445 68.3266 30.2145 71.3941 28.7146C72.0115 28.4127 72.5957 28.0749 73.1441 27.7029C73.9085 27.1844 74.6034 26.5995 75.2215 25.9536C76.3264 24.7991 77.1295 23.5062 77.6087 22.111C77.8142 21.5124 77.971 20.8917 78.0744 20.266C78.1203 19.989 77.948 19.7123 77.6783 19.6298ZM50.6332 10.9875L51.7136 10.8925L52.0011 13.0943L51.5648 13.105L50.9117 13.121L50.6332 10.9875ZM72.5314 26.7872C69.5608 28.8018 65.5296 29.6956 61.7032 28.8607C54.613 27.3135 50.2877 22.5775 50.1329 16.1918C50.1246 15.8488 50.2808 15.6009 50.4132 15.4535C50.728 15.1029 50.9232 14.6684 50.9802 14.2102L52.1886 14.1806C52.3811 14.7938 52.7672 15.3339 53.2911 15.7076C53.4387 15.8129 53.5786 15.9299 53.7067 16.0553C53.7595 16.107 53.8063 16.1726 53.8607 16.2485C53.8956 16.2973 53.9317 16.3477 53.9729 16.3992C54.1639 16.6383 54.3508 16.8735 54.5345 17.1049C57.1583 20.409 59.2307 23.0186 63.6737 23.9881C65.9004 24.474 68.0495 24.4727 70.0614 23.9844C71.8865 23.5414 73.5656 22.7073 75.0574 21.5031L75.0933 21.5206L75.2848 21.6142C74.5154 22.8093 73.5337 23.8047 72.3974 24.5753C69.9006 26.2686 66.662 26.879 63.3163 26.149C58.1068 25.0123 54.3962 22.2086 52.8678 18.2544C52.758 17.9702 52.4468 17.8198 52.1728 17.9184C51.8987 18.0169 51.7657 18.3273 51.8755 18.6116C53.548 22.9387 57.5485 25.9938 63.1401 27.2138C65.8685 27.8091 68.5783 27.5923 70.9764 26.5867C71.7048 26.2813 72.3903 25.9101 73.0272 25.478C74.3342 24.5915 75.4353 23.4491 76.2776 22.0992L76.424 22.1707C75.6693 24.0172 74.2854 25.5976 72.5314 26.7872ZM76.7706 21.1544L76.5521 21.0477L75.9213 20.7396C76.0568 20.6079 76.1891 20.4733 76.3175 20.3361L76.9274 20.5226C76.8817 20.7348 76.8294 20.9456 76.7706 21.1544Z" fill="white"/>
</svg>
